Coordinates
version=1
nRows=26
nColumns=22
inDegrees=yes

Units are S.I. units (second, meters, Newtons, ...)
If the header above contains a line with 'inDegrees', this indicates whether rotational values are in degrees (yes) or radians (no).

endheader
time	pelvis_tilt	pelvis_list	pelvis_rotation	pelvis_tx	pelvis_ty	pelvis_tz	hip_flexion_r	hip_adduction_r	hip_rotation_r	knee_angle_r	ankle_angle_r	subtalar_angle_r	hip_flexion_l	hip_adduction_l	hip_rotation_l	knee_angle_l	ankle_angle_l	subtalar_angle_l	lumbar_extension	lumbar_bending	lumbar_rotation
      3.70000000	      4.05222089	     -2.88796667	     -0.76605608	      0.88334336	      0.91464692	      0.10149041	     14.02448753	      5.46487169	     -2.03059038	    -15.81265421	     -6.41612121	      1.48437339	     -3.27898979	     -3.96686718	     -3.92297013	    -41.87330949	      5.17778526	     -0.33515006	     -6.78803153	     -1.88496306	     -4.12847948
      3.71000000	      4.04767520	     -3.04421592	     -0.70534534	      0.88995767	      0.91537701	      0.10319914	     13.61385634	      5.73644399	     -2.16135852	    -15.86428890	     -6.21782296	      1.11613617	     -2.29180587	     -4.36607882	     -3.64206305	    -44.09717710	      3.72517628	      0.18231732	     -6.77584725	     -1.78389381	     -4.03659427
      3.72000000	      4.05101539	     -3.15868866	     -0.64277150	      0.89639085	      0.91606162	      0.10482919	     13.20351925	      5.96482529	     -2.27086140	    -15.91591559	     -5.96045373	      0.73619586	     -1.28986706	     -4.71431012	     -3.34068442	    -46.27493041	      2.35160235	      0.70837211	     -6.77889996	     -1.72599485	     -3.91176736
      3.73000000	      4.07475146	     -3.23595842	     -0.58033635	      0.90264851	      0.91671948	      0.10640664	     12.77623315	      6.15763580	     -2.34754889	    -15.96168826	     -5.64750766	      0.37498593	     -0.30437311	     -5.02154260	     -3.04415315	    -48.37155720	      1.12397640	      1.21056811	     -6.81119269	     -1.71009963	     -3.77061020
      3.74000000	      4.10528912	     -3.28272598	     -0.51913984	      0.90872985	      0.91733531	      0.10791687	     12.35219621	      6.31882731	     -2.40088141	    -16.01190611	     -5.28405209	      0.01523781	      0.66368004	     -5.28849754	     -2.74623194	    -50.35473050	      0.09458707	      1.71805231	     -6.85477090	     -1.72727467	     -3.59890900
      3.75000000	      4.16946690	     -3.31583988	     -0.45658013	      0.91464283	      0.91797598	      0.10935901	     11.90118744	      6.46201483	     -2.46216262	    -16.05896077	     -4.96345370	     -0.26997961	      1.57393024	     -5.54321954	     -2.48117167	    -52.19553307	     -0.74876260	      2.15027139	     -6.94168500	     -1.75557965	     -3.40510673
      3.76000000	      4.22782866	     -3.32083851	     -0.40129671	      0.92038509	      0.91858044	      0.11073919	     11.46587209	      6.57590214	     -2.47428525	    -16.11049914	     -4.56515838	     -0.55127133	      2.45711710	     -5.76415202	     -2.24188778	    -53.86970486	     -1.33139548	      2.60696877	     -7.02372427	     -1.81089234	     -3.20310847
      3.77000000	      4.28843508	     -3.29363389	     -0.35123775	      0.92597132	      0.91920420	      0.11204240	     11.02614680	      6.65373533	     -2.43754511	    -16.14152103	     -4.16104166	     -0.80418002	      3.28980191	     -5.94144742	     -2.02454110	    -55.33961800	     -1.66452283	      3.05494188	     -7.10764914	     -1.89672980	     -2.99110381
      3.78000000	      4.36881205	     -3.26991153	     -0.31298957	      0.93140421	      0.91987344	      0.11328684	     10.58432267	      6.72820285	     -2.42421516	    -16.18984035	     -3.81000801	     -0.97354359	      4.05288830	     -6.12983327	     -1.86876918	    -56.60013621	     -1.79175331	      3.41861691	     -7.21463678	     -1.97237400	     -2.74957020
      3.79000000	      4.47458745	     -3.18996143	     -0.28417610	      0.93674670	      0.92065766	      0.11443286	     10.08397372	      6.73982434	     -2.33112971	    -16.17226941	     -3.43473637	     -1.03881225	      4.71412939	     -6.24811556	     -1.75931508	    -57.59455362	     -1.73172591	      3.61969984	     -7.33890112	     -2.10233197	     -2.50092285
      3.80000000	      4.46728239	     -3.11931893	     -0.26568359	      0.94186659	      0.92128762	      0.11553850	      9.75789956	      6.75463182	     -2.29658907	    -16.21777489	     -3.17070089	     -1.24430281	      5.46192409	     -6.36746892	     -1.64812545	    -58.38804930	     -1.44704674	      4.08925264	     -7.33830841	     -2.21997725	     -2.22639494
      3.81000000	      4.53289379	     -2.99927150	     -0.25381420	      0.94691253	      0.92210599	      0.11653746	      9.32155851	      6.71161190	     -2.19854498	    -16.19995596	     -2.87870411	     -1.27993999	      6.04925159	     -6.43057432	     -1.60601298	    -58.89794845	     -1.02754386	      4.23444217	     -7.41209417	     -2.37996197	     -1.97847395
      3.82000000	      4.54571817	     -2.86488283	     -0.26124758	      0.95181476	      0.92288679	      0.11750029	      8.95785187	      6.65079011	     -2.10015605	    -16.19097140	     -2.64420909	     -1.34037852	      6.63114358	     -6.47245052	     -1.59830766	    -59.16493195	     -0.45236782	      4.41198671	     -7.41958868	     -2.55423105	     -1.70650191
      3.83000000	      4.52553692	     -2.70723198	     -0.26658213	      0.95660503	      0.92366965	      0.11834795	      8.62269749	      6.55704337	     -1.99195117	    -16.15280684	     -2.44139365	     -1.39900820	      7.18559478	     -6.47664301	     -1.61359908	    -59.18218971	      0.21620371	      4.55434844	     -7.38264710	     -2.73911772	     -1.43340534
      3.84000000	      4.44960668	     -2.52849454	     -0.31881922	      0.96128186	      0.92437953	      0.11922009	      8.36444835	      6.44426466	     -1.86425278	    -16.13326775	     -2.21954304	     -1.50984950	      7.72902487	     -6.46311787	     -1.70347908	    -58.96456946	      0.96211475	      4.71340033	     -7.26848439	     -2.95195705	     -1.11380137
      3.85000000	      4.38201444	     -2.33962754	     -0.34214706	      0.96586379	      0.92512699	      0.11998136	      8.07401983	      6.31215804	     -1.74698192	    -16.05348294	     -2.04982983	     -1.57227341	      8.20045647	     -6.42469412	     -1.78846954	    -58.50924239	      1.81152570	      4.74953040	     -7.16044863	     -3.16395189	     -0.86167750
      3.86000000	      4.29704222	     -2.14498300	     -0.37647270	      0.97034296	      0.92583437	      0.12070201	      7.79963415	      6.17172700	     -1.61385822	    -15.95607314	     -1.88449205	     -1.63978346	      8.62834045	     -6.37900070	     -1.91719012	    -57.84163145	      2.71759016	      4.72393360	     -7.02586069	     -3.37777222	     -0.59818882
      3.87000000	      4.19685543	     -1.96249484	     -0.39666097	      0.97470557	      0.92650332	      0.12135285	      7.53082827	      6.04059398	     -1.48646717	    -15.81929485	     -1.75499451	     -1.69529915	      9.01489160	     -6.32804381	     -2.03132979	    -56.97050116	      3.67261775	      4.66123004	     -6.87544261	     -3.56971398	     -0.36959102
      3.88000000	      4.11400354	     -1.77270613	     -0.49073062	      0.97900065	      0.92714413	      0.12208375	      7.25159431	      5.90778305	     -1.30843455	    -15.69435038	     -1.54926564	     -1.81385323	      9.30227344	     -6.30669933	     -2.31409038	    -55.90643503	      4.64088258	      4.41239004	     -6.73212308	     -3.77530422	     -0.04474652
      3.89000000	      4.03666105	     -1.61444855	     -0.54071382	      0.98318942	      0.92774780	      0.12270614	      6.94989107	      5.79978836	     -1.16452019	    -15.51977469	     -1.40236302	     -1.90699306	      9.53908866	     -6.30274223	     -2.56506255	    -54.68046389	      5.65860668	      4.12607074	     -6.59792446	     -3.93338491	      0.20551547
      3.90000000	      3.97276226	     -1.47851556	     -0.59302761	      0.98728804	      0.92831277	      0.12329100	      6.63022108	      5.71201939	     -1.01826261	    -15.32647365	     -1.26109204	     -1.99270357	      9.70469947	     -6.32778329	     -2.86622034	    -53.30312721	      6.68901232	      3.77647434	     -6.47753364	     -4.06039134	      0.44303835
      3.91000000	      3.91297768	     -1.37112463	     -0.64330821	      0.99128453	      0.92880414	      0.12382652	      6.31934611	      5.64832591	     -0.90146639	    -15.14644366	     -1.11348611	     -2.06089082	      9.81712302	     -6.39521442	     -3.23291394	    -51.80110546	      7.74434559	      3.42884167	     -6.36206064	     -4.14573889	      0.64456358
      3.92000000	      3.88248401	     -1.28213083	     -0.69394957	      0.99520431	      0.92929495	      0.12430224	      5.95831035	      5.60014838	     -0.76132943	    -14.91989061	     -0.97710809	     -2.14045860	      9.83803807	     -6.47441158	     -3.63494978	    -50.16716930	      8.77217479	      2.95437860	     -6.27859151	     -4.20423498	      0.86194949
      3.93000000	      3.85563937	     -1.21435045	     -0.72939196	      0.99903576	      0.92973072	      0.12470221	      5.59539942	      5.56773479	     -0.64339004	    -14.68627556	     -0.84527704	     -2.21123202	      9.80807837	     -6.57287562	     -4.07259465	    -48.43237782	      9.78851195	      2.45960251	     -6.19931500	     -4.23129428	      1.04707756
      3.94000000	      3.84383420	     -1.15448573	     -0.74359607	      1.00279160	      0.93015378	      0.12498960	      5.20524359	      5.53496332	     -0.53101500	    -14.41996854	     -0.75010346	     -2.28499009	      9.71044738	     -6.66399328	     -4.52875366	    -46.59820550	     10.75482075	      1.88761092	     -6.13559661	     -4.23788616	      1.19524622
      3.95000000	      3.81271693	     -1.12673979	     -0.77119745	      1.00644739	      0.93045618	      0.12523718	      4.86994633	      5.53008225	     -0.45219180	    -14.20933415	     -0.58345086	     -2.33552266	      9.59179825	     -6.79887067	     -5.07359405	    -44.71291750	     11.70114329	      1.42729261	     -6.04943237	     -4.20034423	      1.34749786
